<?xml version="1.0" encoding="UTF-8"?>
<!DOCTYPE svg PUBLIC "-//W3C//DTD SVG 1.1//EN" "http://www.w3.org/Graphics/SVG/1.1/DTD/svg11.dtd">
<svg xmlns="http://www.w3.org/2000/svg" version="1.1" width="320px" height="320px" style="shape-rendering:geometricPrecision; text-rendering:geometricPrecision; image-rendering:optimizeQuality; fill-rule:evenodd; clip-rule:evenodd" xmlns:xlink="http://www.w3.org/1999/xlink">
<g><path style="opacity:0.953" fill="#000000" d="M 224.5,15.5 C 249.5,15.5 274.5,15.5 299.5,15.5C 299.5,21.8333 299.5,28.1667 299.5,34.5C 286.56,34.7182 276.394,40.0516 269,50.5C 239.543,123.743 210.376,197.076 181.5,270.5C 169.157,270.08 156.823,269.413 144.5,268.5C 140.667,260.167 136.833,251.833 133,243.5C 128.265,256.539 123.432,269.539 118.5,282.5C 154.995,283.897 191.495,284.897 228,285.5C 238.203,283.731 246.87,279.064 254,271.5C 257.911,266.678 261.578,261.678 265,256.5C 270.054,246.224 275.221,236.057 280.5,226C 286.825,225.5 293.158,225.334 299.5,225.5C 299.66,227.199 299.494,228.866 299,230.5C 288.597,254.541 278.097,278.541 267.5,302.5C 186.167,303.833 104.833,303.833 23.5,302.5C 26.6948,295.582 29.6948,288.582 32.5,281.5C 38.8898,279.984 45.3898,279.317 52,279.5C 56.7472,279.513 61.4139,279.847 66,280.5C 71.5448,279.89 75.8781,277.224 79,272.5C 88.9116,245.837 98.4116,219.004 107.5,192C 87.9199,147.007 68.7532,101.84 50,56.5C 42.4759,46.3686 32.3092,41.7019 19.5,42.5C 19.5,35.1667 19.5,27.8333 19.5,20.5C 48.1667,20.5 76.8333,20.5 105.5,20.5C 105.227,27.5036 104.894,34.5036 104.5,41.5C 95.3204,40.5112 91.4871,44.5112 93,53.5C 105.061,79.2885 117.394,104.955 130,130.5C 135.735,112.726 141.235,94.8923 146.5,77C 146.699,73.7262 145.366,71.3929 142.5,70C 138.812,69.5499 135.146,69.7166 131.5,70.5C 132.794,63.7856 134.794,57.2856 137.5,51C 166.494,51.1665 195.494,51.3332 224.5,51.5C 223.337,57.4883 221.67,63.3216 219.5,69C 206.899,67.7209 197.065,72.2209 190,82.5C 187.117,87.5992 184.783,92.9325 183,98.5C 173.222,127.168 163.056,155.668 152.5,184C 159.299,197.766 165.966,211.599 172.5,225.5C 196.764,166.54 220.931,107.54 245,48.5C 245.925,42.516 243.758,38.016 238.5,35C 233.845,34.5008 229.179,34.3342 224.5,34.5C 224.5,28.1667 224.5,21.8333 224.5,15.5 Z"/></g>
</svg>
